<svg width="136" height="159" viewBox="0 0 136 159" fill="none" xmlns="http://www.w3.org/2000/svg">
<path fill-rule="evenodd" clip-rule="evenodd" d="M99.0917 34.5557L127.636 110.172L54.6352 145.957L99.0917 34.5557ZM135.186 113.134L51.3298 154.24L43.2988 158.177L46.6042 149.894L95.9515 26.2369L99.2568 17.9541L102.397 26.2729L135.186 113.134ZM61.2272 8.80059L89.737 20.5424L37.2704 147.935L8.76049 136.194L61.2272 8.80059ZM57.9641 0.967792L63.512 3.25269L92.0219 14.9945L97.5698 17.2793L95.2849 22.8273L42.8183 150.22L40.5334 155.768L34.9855 153.483L6.47559 141.741L0.927688 139.457L3.21259 133.909L55.6792 6.5157L57.9641 0.967792Z" fill="white"/>
</svg>
